<svg width="446" height="278" viewBox="0 0 446 278" fill="none" xmlns="http://www.w3.org/2000/svg">
<path d="M66.3279 266.614C60.2478 266.614 54.7205 265.509 49.1932 263.851C26.5312 256.112 11.0547 235.108 11.0547 211.341C11.0547 195.312 17.6875 180.388 29.8476 169.886C33.164 167.122 36.4803 164.912 40.3495 162.701L44.2186 149.988C53.615 117.929 82.9098 95.8201 116.074 95.8201C119.39 95.8201 122.706 95.8201 126.576 96.9256C129.892 97.4783 132.656 98.031 135.419 98.5838L137.078 95.8201C150.343 71.4999 175.769 56.5761 203.405 56.5761C245.413 56.5761 279.13 90.8455 279.13 132.3C279.13 134.511 279.13 136.17 278.577 138.38V140.039C281.893 141.144 285.21 142.802 287.973 144.46C308.424 156.068 320.584 177.624 320.584 201.392C320.584 231.792 299.581 258.323 269.733 264.956C264.759 266.061 259.784 266.614 255.362 266.614H66.3279Z" fill="white"/>
<path d="M202.853 67.6306C238.78 67.6306 267.522 96.9254 267.522 132.3V137.275C252.598 138.38 238.78 144.46 228.278 153.857C236.016 149.435 245.413 146.671 255.362 146.671C259.231 146.671 262.548 147.224 265.864 147.777C271.944 148.882 277.471 151.093 282.446 153.857C298.475 163.253 309.53 180.941 309.53 200.839C309.53 226.817 291.29 248.374 267.522 253.901C263.653 255.007 259.784 255.559 255.362 255.559H66.3278C61.3532 255.559 56.9314 255.007 52.5095 253.348C34.8221 247.268 22.1093 230.686 22.1093 211.341C22.1093 198.075 28.1893 185.915 37.033 178.177C41.4549 174.308 45.8767 171.544 51.404 169.886C55.8259 168.228 60.8005 167.122 65.7751 167.122C80.1461 167.122 92.8589 173.755 100.597 184.257H101.15C91.7534 167.122 74.066 154.962 53.615 152.751C61.3532 126.22 85.6734 106.322 114.968 106.322C118.285 106.322 121.048 106.875 123.812 106.875C129.892 107.98 135.419 109.085 140.394 111.849C159.739 120.693 174.11 138.933 177.427 161.042V160.489C177.427 135.617 164.714 113.507 145.368 100.794C157.529 80.8961 178.532 67.6306 202.853 67.6306ZM202.853 45.5213C173.005 45.5213 145.368 60.9978 129.339 85.8707C128.786 85.8707 128.234 85.8707 127.681 85.318C123.259 84.7653 119.39 84.2125 115.521 84.2125C77.3824 84.2125 43.6658 109.638 33.1639 146.671L30.4002 155.515C27.6366 157.173 24.8729 159.384 22.662 161.595C8.29097 173.755 0 191.995 0 211.341C0 240.083 18.2401 265.509 45.324 274.352C51.9568 276.563 59.1423 277.669 66.3278 277.669H255.362C260.889 277.669 266.969 277.116 272.497 275.458C307.319 267.167 331.639 236.766 331.639 200.839C331.639 173.755 316.715 148.329 293.5 134.511L290.184 132.853V132.3C289.631 84.7653 250.94 45.5213 202.853 45.5213Z" fill="black"/>
<path opacity="0.4" d="M331.44 30.0549V212.714C333.377 212.714 335.428 212.372 337.023 211.461L337.479 211.233C359.357 199.268 397.53 186.734 422.257 183.43L425.561 182.974C436.5 181.606 445.388 171.351 445.388 160.412V22.7621C445.388 9.20226 434.335 -1.05298 420.775 0.0865014C396.846 2.02362 360.611 14.1025 340.328 26.7508L337.479 28.4595C335.77 29.4851 333.605 30.0549 331.44 30.0549Z" fill="#9E9E9E"/>
<path d="M217.492 22.8744V160.41C217.492 171.349 226.38 181.604 237.319 182.972L241.079 183.427C265.92 186.732 304.207 199.38 326.084 211.459C327.566 212.37 329.389 212.713 331.44 212.713V30.0531C329.275 30.0531 327.11 29.4833 325.401 28.4577L323.464 27.2044C303.181 14.4422 266.831 2.24984 242.902 0.19877H242.218C228.658 -0.940714 217.492 9.20058 217.492 22.8744Z" fill="#333333"/>
<path d="M411.203 1.34073V50.2244C411.203 54.7823 406.19 57.5168 402.315 55.01L388.414 45.7803L374.512 55.01C370.752 57.5168 365.624 54.7823 365.624 50.2244V14.3304C380.551 8.40507 397.188 3.6197 411.203 1.34073Z" fill="white"/>
</svg>
