<svg width="42" height="26" viewBox="0 0 42 26" fill="none" xmlns="http://www.w3.org/2000/svg">
<g id="Group 13974">
<g id="&#240;&#159;&#166;&#134; emoji &#34;cloud&#34;">
<path id="Vector" d="M19.1289 6.11994C22.5169 6.11994 25.2272 8.77084 25.2272 11.9719V12.4221C23.8199 12.5221 22.5169 13.0723 21.5266 13.9226C22.2563 13.5225 23.1424 13.2724 24.0806 13.2724C24.4454 13.2724 24.7581 13.3224 25.0709 13.3724C25.6442 13.4724 26.1655 13.6725 26.6346 13.9226C28.1461 14.7729 29.1886 16.3734 29.1886 18.174C29.1886 20.5248 27.4685 22.4755 25.2272 22.9757C24.8624 23.0757 24.4975 23.1257 24.0806 23.1257H6.25469C5.78559 23.1257 5.36861 23.0757 4.95163 22.9256C3.28371 22.3755 2.0849 20.8749 2.0849 19.1244C2.0849 17.9239 2.65824 16.8236 3.4922 16.1233C3.90918 15.7732 4.32616 15.5231 4.84738 15.3731C5.26436 15.223 5.73347 15.123 6.20257 15.123C7.55775 15.123 8.75657 15.7232 9.48628 16.6735H9.5384C8.65232 15.123 6.9844 14.0226 5.05587 13.8226C5.78559 11.4217 8.07897 9.62113 10.8415 9.62113C11.1542 9.62113 11.4148 9.67115 11.6754 9.67115C12.2488 9.77118 12.77 9.87121 13.2391 10.1213C15.0634 10.9216 16.4186 12.5721 16.7313 14.5728V14.5228C16.7313 12.272 15.5325 10.2713 13.7082 9.12096C14.8549 7.32035 16.8355 6.11994 19.1289 6.11994ZM19.1289 4.11926C16.3143 4.11926 13.7082 5.51974 12.1966 7.7705C12.1445 7.7705 12.0924 7.7705 12.0403 7.72048C11.6233 7.67047 11.2584 7.62045 10.8936 7.62045C7.29714 7.62045 4.11767 9.92123 3.12734 13.2724L2.86673 14.0726C2.60612 14.2227 2.34551 14.4228 2.13702 14.6228C0.781836 15.7232 0 17.3738 0 19.1244C0 21.7252 1.72004 24.026 4.27404 24.8263C4.89951 25.0264 5.5771 25.1264 6.25469 25.1264H24.0806C24.6018 25.1264 25.1751 25.0764 25.6964 24.9263C28.9801 24.1761 31.2734 21.4251 31.2734 18.174C31.2734 15.7232 29.8661 13.4224 27.677 12.172L27.3643 12.0219V11.9719C27.3121 7.67047 23.6636 4.11926 19.1289 4.11926Z" fill="black"/>
</g>
<g id="&#240;&#159;&#166;&#134; icon &#34;book saved&#34;">
<g id="Group">
<path id="Vector_2" opacity="0.4" d="M31.2546 2.71969V19.2486C31.4373 19.2486 31.6307 19.2177 31.7812 19.1352L31.8241 19.1146C33.8872 18.0319 37.4869 16.8977 39.8186 16.5986L40.1303 16.5574C41.1618 16.4337 41.9999 15.5056 41.9999 14.5158V2.05976C41.9999 0.832717 40.9576 -0.0952849 39.6789 0.00782755C37.4224 0.183119 34.0054 1.27614 32.0928 2.42069L31.8241 2.57532C31.663 2.66812 31.4588 2.71969 31.2546 2.71969Z" fill="#9E9E9E"/>
<path id="Vector_3" d="M20.5093 2.06996V14.5156C20.5093 15.5055 21.3474 16.4335 22.3789 16.5572L22.7336 16.5985C25.076 16.8975 28.6865 18.0421 30.7495 19.1351C30.8892 19.2175 31.0612 19.2486 31.2546 19.2486V2.71957C31.0504 2.71957 30.8463 2.66801 30.6851 2.5752L30.5024 2.46179C28.5897 1.30693 25.162 0.203639 22.9055 0.0180362H22.841C21.5623 -0.0850762 20.5093 0.832614 20.5093 2.06996Z" fill="#333333"/>
<path id="Vector_4" d="M38.7761 0.121338V4.54484C38.7761 4.95729 38.3034 5.20474 37.938 4.97789L36.6271 4.14269L35.3162 4.97789C34.9616 5.20474 34.478 4.95729 34.478 4.54484V1.29678C35.8857 0.760594 37.4545 0.327563 38.7761 0.121338Z" fill="white"/>
</g>
</g>
</g>
</svg>
