

<svg width="1113" height="539" viewBox="0 0 1113 539" fill="none" xmlns="http://www.w3.org/2000/svg">
<path d="M590.292 299V212.2H632.7C643.612 212.2 651.796 214.267 657.252 218.4C662.791 222.533 665.56 227.989 665.56 234.768C665.56 239.315 664.444 243.283 662.212 246.672C659.98 249.979 656.921 252.541 653.036 254.36C649.151 256.179 644.687 257.088 639.644 257.088L642 252.004C647.456 252.004 652.292 252.913 656.508 254.732C660.724 256.468 663.989 259.072 666.304 262.544C668.701 266.016 669.9 270.273 669.9 275.316C669.9 282.756 666.965 288.584 661.096 292.8C655.227 296.933 646.588 299 635.18 299H590.292ZM610.256 283.872H633.692C638.9 283.872 642.827 283.045 645.472 281.392C648.2 279.656 649.564 276.928 649.564 273.208C649.564 269.571 648.2 266.884 645.472 265.148C642.827 263.329 638.9 262.42 633.692 262.42H608.768V247.788H630.22C635.097 247.788 638.817 246.961 641.38 245.308C644.025 243.572 645.348 240.968 645.348 237.496C645.348 234.107 644.025 231.585 641.38 229.932C638.817 228.196 635.097 227.328 630.22 227.328H610.256V283.872ZM681.016 299V232.288H700.36V299H681.016ZM690.688 222.988C687.134 222.988 684.24 221.955 682.008 219.888C679.776 217.821 678.66 215.259 678.66 212.2C678.66 209.141 679.776 206.579 682.008 204.512C684.24 202.445 687.134 201.412 690.688 201.412C694.243 201.412 697.136 202.404 699.368 204.388C701.6 206.289 702.716 208.769 702.716 211.828C702.716 215.052 701.6 217.739 699.368 219.888C697.219 221.955 694.326 222.988 690.688 222.988ZM755.017 299.992C749.148 299.992 744.105 298.752 739.889 296.272C735.673 293.792 732.449 290.031 730.217 284.988C727.985 279.863 726.869 273.415 726.869 265.644C726.869 257.791 728.027 251.343 730.341 246.3C732.739 241.257 736.045 237.496 740.261 235.016C744.477 232.536 749.396 231.296 755.017 231.296C761.3 231.296 766.921 232.701 771.881 235.512C776.924 238.323 780.892 242.291 783.785 247.416C786.761 252.541 788.249 258.617 788.249 265.644C788.249 272.588 786.761 278.623 783.785 283.748C780.892 288.873 776.924 292.883 771.881 295.776C766.921 298.587 761.3 299.992 755.017 299.992ZM715.585 299V206.992H734.929V245.804L733.689 265.52L734.061 285.36V299H715.585ZM751.669 284.12C754.893 284.12 757.745 283.376 760.225 281.888C762.788 280.4 764.813 278.292 766.301 275.564C767.872 272.753 768.657 269.447 768.657 265.644C768.657 261.759 767.872 258.452 766.301 255.724C764.813 252.996 762.788 250.888 760.225 249.4C757.745 247.912 754.893 247.168 751.669 247.168C748.445 247.168 745.552 247.912 742.989 249.4C740.427 250.888 738.401 252.996 736.913 255.724C735.425 258.452 734.681 261.759 734.681 265.644C734.681 269.447 735.425 272.753 736.913 275.564C738.401 278.292 740.427 280.4 742.989 281.888C745.552 283.376 748.445 284.12 751.669 284.12ZM798.471 299V206.992H817.815V299H798.471ZM833.039 299V232.288H852.383V299H833.039ZM842.711 222.988C839.157 222.988 836.263 221.955 834.031 219.888C831.799 217.821 830.683 215.259 830.683 212.2C830.683 209.141 831.799 206.579 834.031 204.512C836.263 202.445 839.157 201.412 842.711 201.412C846.266 201.412 849.159 202.404 851.391 204.388C853.623 206.289 854.739 208.769 854.739 211.828C854.739 215.052 853.623 217.739 851.391 219.888C849.242 221.955 846.349 222.988 842.711 222.988ZM899.352 299.992C892.243 299.992 885.919 298.504 880.38 295.528C874.924 292.552 870.584 288.501 867.36 283.376C864.219 278.168 862.648 272.257 862.648 265.644C862.648 258.948 864.219 253.037 867.36 247.912C870.584 242.704 874.924 238.653 880.38 235.76C885.919 232.784 892.243 231.296 899.352 231.296C906.379 231.296 912.662 232.784 918.2 235.76C923.739 238.653 928.079 242.663 931.22 247.788C934.362 252.913 935.932 258.865 935.932 265.644C935.932 272.257 934.362 278.168 931.22 283.376C928.079 288.501 923.739 292.552 918.2 295.528C912.662 298.504 906.379 299.992 899.352 299.992ZM899.352 284.12C902.576 284.12 905.47 283.376 908.032 281.888C910.595 280.4 912.62 278.292 914.108 275.564C915.596 272.753 916.34 269.447 916.34 265.644C916.34 261.759 915.596 258.452 914.108 255.724C912.62 252.996 910.595 250.888 908.032 249.4C905.47 247.912 902.576 247.168 899.352 247.168C896.128 247.168 893.235 247.912 890.672 249.4C888.11 250.888 886.043 252.996 884.472 255.724C882.984 258.452 882.24 261.759 882.24 265.644C882.24 269.447 882.984 272.753 884.472 275.564C886.043 278.292 888.11 280.4 890.672 281.888C893.235 283.376 896.128 284.12 899.352 284.12ZM631.832 424.488C625.136 424.488 618.895 423.413 613.108 421.264C607.404 419.032 602.444 415.891 598.228 411.84C594.012 407.789 590.705 403.036 588.308 397.58C585.993 392.124 584.836 386.131 584.836 379.6C584.836 373.069 585.993 367.076 588.308 361.62C590.705 356.164 594.012 351.411 598.228 347.36C602.527 343.309 607.528 340.209 613.232 338.06C618.936 335.828 625.177 334.712 631.956 334.712C639.479 334.712 646.257 336.035 652.292 338.68C658.409 341.243 663.535 345.045 667.668 350.088L654.772 361.992C651.796 358.603 648.489 356.081 644.852 354.428C641.215 352.692 637.247 351.824 632.948 351.824C628.897 351.824 625.177 352.485 621.788 353.808C618.399 355.131 615.464 357.032 612.984 359.512C610.504 361.992 608.561 364.927 607.156 368.316C605.833 371.705 605.172 375.467 605.172 379.6C605.172 383.733 605.833 387.495 607.156 390.884C608.561 394.273 610.504 397.208 612.984 399.688C615.464 402.168 618.399 404.069 621.788 405.392C625.177 406.715 628.897 407.376 632.948 407.376C637.247 407.376 641.215 406.549 644.852 404.896C648.489 403.16 651.796 400.556 654.772 397.084L667.668 408.988C663.535 414.031 658.409 417.875 652.292 420.52C646.257 423.165 639.437 424.488 631.832 424.488ZM706.585 423.992C699.475 423.992 693.151 422.504 687.613 419.528C682.157 416.552 677.817 412.501 674.593 407.376C671.451 402.168 669.881 396.257 669.881 389.644C669.881 382.948 671.451 377.037 674.593 371.912C677.817 366.704 682.157 362.653 687.613 359.76C693.151 356.784 699.475 355.296 706.585 355.296C713.611 355.296 719.894 356.784 725.433 359.76C730.971 362.653 735.311 366.663 738.453 371.788C741.594 376.913 743.165 382.865 743.165 389.644C743.165 396.257 741.594 402.168 738.453 407.376C735.311 412.501 730.971 416.552 725.433 419.528C719.894 422.504 713.611 423.992 706.585 423.992ZM706.585 408.12C709.809 408.12 712.702 407.376 715.265 405.888C717.827 404.4 719.853 402.292 721.341 399.564C722.829 396.753 723.573 393.447 723.573 389.644C723.573 385.759 722.829 382.452 721.341 379.724C719.853 376.996 717.827 374.888 715.265 373.4C712.702 371.912 709.809 371.168 706.585 371.168C703.361 371.168 700.467 371.912 697.905 373.4C695.342 374.888 693.275 376.996 691.705 379.724C690.217 382.452 689.473 385.759 689.473 389.644C689.473 393.447 690.217 396.753 691.705 399.564C693.275 402.292 695.342 404.4 697.905 405.888C700.467 407.376 703.361 408.12 706.585 408.12ZM793.915 355.296C799.205 355.296 803.917 356.371 808.051 358.52C812.267 360.587 815.573 363.811 817.971 368.192C820.368 372.491 821.567 378.029 821.567 384.808V423H802.223V387.784C802.223 382.411 801.024 378.443 798.627 375.88C796.312 373.317 793.005 372.036 788.707 372.036C785.648 372.036 782.879 372.697 780.399 374.02C778.001 375.26 776.1 377.203 774.695 379.848C773.372 382.493 772.711 385.883 772.711 390.016V423H753.367V356.288H771.843V374.764L768.371 369.184C770.768 364.72 774.199 361.289 778.663 358.892C783.127 356.495 788.211 355.296 793.915 355.296ZM869.965 423.992C862.36 423.992 855.664 422.504 849.877 419.528C844.173 416.552 839.751 412.501 836.609 407.376C833.468 402.168 831.897 396.257 831.897 389.644C831.897 382.948 833.427 377.037 836.485 371.912C839.627 366.704 843.884 362.653 849.257 359.76C854.631 356.784 860.707 355.296 867.485 355.296C874.016 355.296 879.885 356.701 885.093 359.512C890.384 362.24 894.559 366.208 897.617 371.416C900.676 376.541 902.205 382.7 902.205 389.892C902.205 390.636 902.164 391.504 902.081 392.496C901.999 393.405 901.916 394.273 901.833 395.1H847.645V383.816H891.665L884.225 387.164C884.225 383.692 883.523 380.675 882.117 378.112C880.712 375.549 878.769 373.565 876.289 372.16C873.809 370.672 870.916 369.928 867.609 369.928C864.303 369.928 861.368 370.672 858.805 372.16C856.325 373.565 854.383 375.591 852.977 378.236C851.572 380.799 850.869 383.857 850.869 387.412V390.388C850.869 394.025 851.655 397.249 853.225 400.06C854.879 402.788 857.152 404.896 860.045 406.384C863.021 407.789 866.493 408.492 870.461 408.492C874.016 408.492 877.116 407.955 879.761 406.88C882.489 405.805 884.969 404.193 887.201 402.044L897.493 413.204C894.435 416.676 890.591 419.363 885.961 421.264C881.332 423.083 876 423.992 869.965 423.992ZM902.107 423L931.991 383.816L931.619 394.48L902.975 356.288H924.675L942.779 381.212L934.595 381.46L953.319 356.288H973.903L945.135 394.108V383.692L974.895 423H952.947L933.975 396.464L942.035 397.58L923.187 423H902.107Z" fill="#F8F8F8"/>
<path d="M332.853 212.631C368.78 212.631 397.522 241.925 397.522 277.3V282.275C382.598 283.38 368.78 289.46 358.278 298.857C366.016 294.435 375.413 291.671 385.362 291.671C389.231 291.671 392.548 292.224 395.864 292.777C401.944 293.882 407.471 296.093 412.446 298.857C428.475 308.253 439.53 325.941 439.53 345.839C439.53 371.817 421.29 393.374 397.522 398.901C393.653 400.007 389.784 400.559 385.362 400.559H196.328C191.353 400.559 186.931 400.007 182.51 398.348C164.822 392.268 152.109 375.686 152.109 356.341C152.109 343.075 158.189 330.915 167.033 323.177C171.455 319.308 175.877 316.544 181.404 314.886C185.826 313.228 190.8 312.122 195.775 312.122C210.146 312.122 222.859 318.755 230.597 329.257H231.15C221.753 312.122 204.066 299.962 183.615 297.751C191.353 271.22 215.673 251.322 244.968 251.322C248.285 251.322 251.048 251.874 253.812 251.874C259.892 252.98 265.419 254.085 270.394 256.849C289.739 265.693 304.11 283.933 307.427 306.042V305.489C307.427 280.617 294.714 258.507 275.368 245.794C287.529 225.896 308.532 212.631 332.853 212.631ZM332.853 190.521C303.005 190.521 275.368 205.998 259.339 230.871C258.786 230.871 258.234 230.871 257.681 230.318C253.259 229.765 249.39 229.212 245.521 229.212C207.382 229.212 173.666 254.638 163.164 291.671L160.4 300.515C157.637 302.173 154.873 304.384 152.662 306.595C138.291 318.755 130 336.995 130 356.341C130 385.083 148.24 410.508 175.324 419.352C181.957 421.563 189.142 422.669 196.328 422.669H385.362C390.889 422.669 396.969 422.116 402.497 420.458C437.319 412.167 461.639 381.766 461.639 345.839C461.639 318.755 446.715 293.329 423.5 279.511L420.184 277.853V277.3C419.631 229.765 380.94 190.521 332.853 190.521Z" fill="white"/>
<path opacity="0.4" d="M461.44 175.055V357.714C463.377 357.714 465.428 357.372 467.023 356.461L467.479 356.233C489.357 344.268 527.53 331.734 552.257 328.43L555.561 327.974C566.5 326.606 575.388 316.351 575.388 305.412V167.762C575.388 154.202 564.335 143.947 550.775 145.087C526.846 147.024 490.611 159.102 470.328 171.751L467.479 173.46C465.77 174.485 463.605 175.055 461.44 175.055Z" fill="#C4C4C4"/>
<path d="M347.492 167.874V305.41C347.492 316.349 356.38 326.604 367.319 327.972L371.079 328.427C395.92 331.732 434.207 344.38 456.084 356.459C457.566 357.37 459.389 357.713 461.44 357.713V175.053C459.275 175.053 457.11 174.483 455.401 173.458L453.464 172.204C433.181 159.442 396.831 147.25 372.902 145.199H372.218C358.658 144.059 347.492 154.201 347.492 167.874Z" fill="#B3B3B3"/>
<path d="M541.203 146.341V195.224C541.203 199.782 536.19 202.517 532.315 200.01L518.414 190.78L504.512 200.01C500.752 202.517 495.624 199.782 495.624 195.224V159.33C510.551 153.405 527.188 148.62 541.203 146.341Z" fill="black"/>
</svg>
