<svg width="849" height="279" viewBox="0 0 849 279" fill="none" xmlns="http://www.w3.org/2000/svg">
<path d="M202.853 67.6306C238.78 67.6306 267.522 96.9254 267.522 132.3V137.275C252.598 138.38 238.78 144.46 228.278 153.857C236.016 149.435 245.413 146.671 255.362 146.671C259.231 146.671 262.548 147.224 265.864 147.777C271.944 148.882 277.471 151.093 282.446 153.857C298.475 163.253 309.53 180.941 309.53 200.839C309.53 226.817 291.29 248.374 267.522 253.901C263.653 255.007 259.784 255.559 255.362 255.559H66.3278C61.3532 255.559 56.9314 255.007 52.5095 253.348C34.8221 247.268 22.1093 230.686 22.1093 211.341C22.1093 198.075 28.1893 185.915 37.033 178.177C41.4549 174.308 45.8767 171.544 51.404 169.886C55.8259 168.228 60.8005 167.122 65.7751 167.122C80.1461 167.122 92.8589 173.755 100.597 184.257H101.15C91.7534 167.122 74.066 154.962 53.615 152.751C61.3532 126.22 85.6734 106.322 114.968 106.322C118.285 106.322 121.048 106.875 123.812 106.875C129.892 107.98 135.419 109.085 140.394 111.849C159.739 120.693 174.11 138.933 177.427 161.042V160.489C177.427 135.617 164.714 113.507 145.368 100.794C157.529 80.8961 178.532 67.6306 202.853 67.6306ZM202.853 45.5213C173.005 45.5213 145.368 60.9978 129.339 85.8707C128.786 85.8707 128.234 85.8707 127.681 85.318C123.259 84.7653 119.39 84.2125 115.521 84.2125C77.3824 84.2125 43.6658 109.638 33.1639 146.671L30.4002 155.515C27.6366 157.173 24.8729 159.384 22.662 161.595C8.29097 173.755 0 191.995 0 211.341C0 240.083 18.2401 265.509 45.324 274.352C51.9568 276.563 59.1423 277.669 66.3278 277.669H255.362C260.889 277.669 266.969 277.116 272.497 275.458C307.319 267.167 331.639 236.766 331.639 200.839C331.639 173.755 316.715 148.329 293.5 134.511L290.184 132.853V132.3C289.631 84.7653 250.94 45.5213 202.853 45.5213Z" fill="black"/>
<path opacity="0.4" d="M331.44 30.0549V212.714C333.377 212.714 335.428 212.372 337.023 211.461L337.479 211.233C359.357 199.268 397.53 186.734 422.257 183.43L425.561 182.974C436.5 181.606 445.388 171.351 445.388 160.412V22.7621C445.388 9.20226 434.335 -1.05298 420.775 0.0865014C396.846 2.02362 360.611 14.1025 340.328 26.7508L337.479 28.4595C335.77 29.4851 333.605 30.0549 331.44 30.0549Z" fill="#9E9E9E"/>
<path d="M217.492 22.8744V160.41C217.492 171.349 226.38 181.604 237.319 182.972L241.079 183.427C265.92 186.732 304.207 199.38 326.084 211.459C327.566 212.37 329.389 212.713 331.44 212.713V30.0531C329.275 30.0531 327.11 29.4833 325.401 28.4577L323.464 27.2044C303.181 14.4422 266.831 2.24984 242.902 0.19877H242.218C228.658 -0.940714 217.492 9.20058 217.492 22.8744Z" fill="#333333"/>
<path d="M411.203 1.34073V50.2244C411.203 54.7823 406.19 57.5168 402.315 55.01L388.414 45.7803L374.512 55.01C370.752 57.5168 365.624 54.7823 365.624 50.2244V14.3304C380.551 8.40507 397.188 3.6197 411.203 1.34073Z" fill="white"/>
<path d="M464.292 153V66.2H506.7C517.612 66.2 525.796 68.2667 531.252 72.4C536.791 76.5333 539.56 81.9893 539.56 88.768C539.56 93.3147 538.444 97.2827 536.212 100.672C533.98 103.979 530.921 106.541 527.036 108.36C523.151 110.179 518.687 111.088 513.644 111.088L516 106.004C521.456 106.004 526.292 106.913 530.508 108.732C534.724 110.468 537.989 113.072 540.304 116.544C542.701 120.016 543.9 124.273 543.9 129.316C543.9 136.756 540.965 142.584 535.096 146.8C529.227 150.933 520.588 153 509.18 153H464.292ZM484.256 137.872H507.692C512.9 137.872 516.827 137.045 519.472 135.392C522.2 133.656 523.564 130.928 523.564 127.208C523.564 123.571 522.2 120.884 519.472 119.148C516.827 117.329 512.9 116.42 507.692 116.42H482.768V101.788H504.22C509.097 101.788 512.817 100.961 515.38 99.308C518.025 97.572 519.348 94.968 519.348 91.496C519.348 88.1067 518.025 85.5853 515.38 83.932C512.817 82.196 509.097 81.328 504.22 81.328H484.256V137.872ZM555.016 153V86.288H574.36V153H555.016ZM564.688 76.988C561.134 76.988 558.24 75.9547 556.008 73.888C553.776 71.8213 552.66 69.2587 552.66 66.2C552.66 63.1413 553.776 60.5787 556.008 58.512C558.24 56.4453 561.134 55.412 564.688 55.412C568.243 55.412 571.136 56.404 573.368 58.388C575.6 60.2893 576.716 62.7693 576.716 65.828C576.716 69.052 575.6 71.7387 573.368 73.888C571.219 75.9547 568.326 76.988 564.688 76.988ZM629.017 153.992C623.148 153.992 618.105 152.752 613.889 150.272C609.673 147.792 606.449 144.031 604.217 138.988C601.985 133.863 600.869 127.415 600.869 119.644C600.869 111.791 602.027 105.343 604.341 100.3C606.739 95.2573 610.045 91.496 614.261 89.016C618.477 86.536 623.396 85.296 629.017 85.296C635.3 85.296 640.921 86.7013 645.881 89.512C650.924 92.3227 654.892 96.2907 657.785 101.416C660.761 106.541 662.249 112.617 662.249 119.644C662.249 126.588 660.761 132.623 657.785 137.748C654.892 142.873 650.924 146.883 645.881 149.776C640.921 152.587 635.3 153.992 629.017 153.992ZM589.585 153V60.992H608.929V99.804L607.689 119.52L608.061 139.36V153H589.585ZM625.669 138.12C628.893 138.12 631.745 137.376 634.225 135.888C636.788 134.4 638.813 132.292 640.301 129.564C641.872 126.753 642.657 123.447 642.657 119.644C642.657 115.759 641.872 112.452 640.301 109.724C638.813 106.996 636.788 104.888 634.225 103.4C631.745 101.912 628.893 101.168 625.669 101.168C622.445 101.168 619.552 101.912 616.989 103.4C614.427 104.888 612.401 106.996 610.913 109.724C609.425 112.452 608.681 115.759 608.681 119.644C608.681 123.447 609.425 126.753 610.913 129.564C612.401 132.292 614.427 134.4 616.989 135.888C619.552 137.376 622.445 138.12 625.669 138.12ZM672.471 153V60.992H691.815V153H672.471ZM707.039 153V86.288H726.383V153H707.039ZM716.711 76.988C713.157 76.988 710.263 75.9547 708.031 73.888C705.799 71.8213 704.683 69.2587 704.683 66.2C704.683 63.1413 705.799 60.5787 708.031 58.512C710.263 56.4453 713.157 55.412 716.711 55.412C720.266 55.412 723.159 56.404 725.391 58.388C727.623 60.2893 728.739 62.7693 728.739 65.828C728.739 69.052 727.623 71.7387 725.391 73.888C723.242 75.9547 720.349 76.988 716.711 76.988ZM773.352 153.992C766.243 153.992 759.919 152.504 754.38 149.528C748.924 146.552 744.584 142.501 741.36 137.376C738.219 132.168 736.648 126.257 736.648 119.644C736.648 112.948 738.219 107.037 741.36 101.912C744.584 96.704 748.924 92.6533 754.38 89.76C759.919 86.784 766.243 85.296 773.352 85.296C780.379 85.296 786.662 86.784 792.2 89.76C797.739 92.6533 802.079 96.6627 805.22 101.788C808.362 106.913 809.932 112.865 809.932 119.644C809.932 126.257 808.362 132.168 805.22 137.376C802.079 142.501 797.739 146.552 792.2 149.528C786.662 152.504 780.379 153.992 773.352 153.992ZM773.352 138.12C776.576 138.12 779.47 137.376 782.032 135.888C784.595 134.4 786.62 132.292 788.108 129.564C789.596 126.753 790.34 123.447 790.34 119.644C790.34 115.759 789.596 112.452 788.108 109.724C786.62 106.996 784.595 104.888 782.032 103.4C779.47 101.912 776.576 101.168 773.352 101.168C770.128 101.168 767.235 101.912 764.672 103.4C762.11 104.888 760.043 106.996 758.472 109.724C756.984 112.452 756.24 115.759 756.24 119.644C756.24 123.447 756.984 126.753 758.472 129.564C760.043 132.292 762.11 134.4 764.672 135.888C767.235 137.376 770.128 138.12 773.352 138.12ZM505.832 278.488C499.136 278.488 492.895 277.413 487.108 275.264C481.404 273.032 476.444 269.891 472.228 265.84C468.012 261.789 464.705 257.036 462.308 251.58C459.993 246.124 458.836 240.131 458.836 233.6C458.836 227.069 459.993 221.076 462.308 215.62C464.705 210.164 468.012 205.411 472.228 201.36C476.527 197.309 481.528 194.209 487.232 192.06C492.936 189.828 499.177 188.712 505.956 188.712C513.479 188.712 520.257 190.035 526.292 192.68C532.409 195.243 537.535 199.045 541.668 204.088L528.772 215.992C525.796 212.603 522.489 210.081 518.852 208.428C515.215 206.692 511.247 205.824 506.948 205.824C502.897 205.824 499.177 206.485 495.788 207.808C492.399 209.131 489.464 211.032 486.984 213.512C484.504 215.992 482.561 218.927 481.156 222.316C479.833 225.705 479.172 229.467 479.172 233.6C479.172 237.733 479.833 241.495 481.156 244.884C482.561 248.273 484.504 251.208 486.984 253.688C489.464 256.168 492.399 258.069 495.788 259.392C499.177 260.715 502.897 261.376 506.948 261.376C511.247 261.376 515.215 260.549 518.852 258.896C522.489 257.16 525.796 254.556 528.772 251.084L541.668 262.988C537.535 268.031 532.409 271.875 526.292 274.52C520.257 277.165 513.437 278.488 505.832 278.488ZM580.585 277.992C573.475 277.992 567.151 276.504 561.613 273.528C556.157 270.552 551.817 266.501 548.593 261.376C545.451 256.168 543.881 250.257 543.881 243.644C543.881 236.948 545.451 231.037 548.593 225.912C551.817 220.704 556.157 216.653 561.613 213.76C567.151 210.784 573.475 209.296 580.585 209.296C587.611 209.296 593.894 210.784 599.433 213.76C604.971 216.653 609.311 220.663 612.453 225.788C615.594 230.913 617.165 236.865 617.165 243.644C617.165 250.257 615.594 256.168 612.453 261.376C609.311 266.501 604.971 270.552 599.433 273.528C593.894 276.504 587.611 277.992 580.585 277.992ZM580.585 262.12C583.809 262.12 586.702 261.376 589.265 259.888C591.827 258.4 593.853 256.292 595.341 253.564C596.829 250.753 597.573 247.447 597.573 243.644C597.573 239.759 596.829 236.452 595.341 233.724C593.853 230.996 591.827 228.888 589.265 227.4C586.702 225.912 583.809 225.168 580.585 225.168C577.361 225.168 574.467 225.912 571.905 227.4C569.342 228.888 567.275 230.996 565.705 233.724C564.217 236.452 563.473 239.759 563.473 243.644C563.473 247.447 564.217 250.753 565.705 253.564C567.275 256.292 569.342 258.4 571.905 259.888C574.467 261.376 577.361 262.12 580.585 262.12ZM667.915 209.296C673.205 209.296 677.917 210.371 682.051 212.52C686.267 214.587 689.573 217.811 691.971 222.192C694.368 226.491 695.567 232.029 695.567 238.808V277H676.223V241.784C676.223 236.411 675.024 232.443 672.627 229.88C670.312 227.317 667.005 226.036 662.707 226.036C659.648 226.036 656.879 226.697 654.399 228.02C652.001 229.26 650.1 231.203 648.695 233.848C647.372 236.493 646.711 239.883 646.711 244.016V277H627.367V210.288H645.843V228.764L642.371 223.184C644.768 218.72 648.199 215.289 652.663 212.892C657.127 210.495 662.211 209.296 667.915 209.296ZM743.965 277.992C736.36 277.992 729.664 276.504 723.877 273.528C718.173 270.552 713.751 266.501 710.609 261.376C707.468 256.168 705.897 250.257 705.897 243.644C705.897 236.948 707.427 231.037 710.485 225.912C713.627 220.704 717.884 216.653 723.257 213.76C728.631 210.784 734.707 209.296 741.485 209.296C748.016 209.296 753.885 210.701 759.093 213.512C764.384 216.24 768.559 220.208 771.617 225.416C774.676 230.541 776.205 236.7 776.205 243.892C776.205 244.636 776.164 245.504 776.081 246.496C775.999 247.405 775.916 248.273 775.833 249.1H721.645V237.816H765.665L758.225 241.164C758.225 237.692 757.523 234.675 756.117 232.112C754.712 229.549 752.769 227.565 750.289 226.16C747.809 224.672 744.916 223.928 741.609 223.928C738.303 223.928 735.368 224.672 732.805 226.16C730.325 227.565 728.383 229.591 726.977 232.236C725.572 234.799 724.869 237.857 724.869 241.412V244.388C724.869 248.025 725.655 251.249 727.225 254.06C728.879 256.788 731.152 258.896 734.045 260.384C737.021 261.789 740.493 262.492 744.461 262.492C748.016 262.492 751.116 261.955 753.761 260.88C756.489 259.805 758.969 258.193 761.201 256.044L771.493 267.204C768.435 270.676 764.591 273.363 759.961 275.264C755.332 277.083 750 277.992 743.965 277.992ZM776.107 277L805.991 237.816L805.619 248.48L776.975 210.288H798.675L816.779 235.212L808.595 235.46L827.319 210.288H847.903L819.135 248.108V237.692L848.895 277H826.947L807.975 250.464L816.035 251.58L797.187 277H776.107Z" fill="black"/>
</svg>
