<svg width="52" height="32" viewBox="0 0 52 32" fill="none" xmlns="http://www.w3.org/2000/svg">
<g id="Group 13978">
<g id="&#240;&#159;&#166;&#134; emoji &#34;cloud&#34;">
<path id="Vector" d="M23.6834 7.57713C27.8781 7.57713 31.2338 10.8592 31.2338 14.8225V15.3798C29.4914 15.5036 27.8781 16.1848 26.6519 17.2376C27.5554 16.7422 28.6525 16.4325 29.814 16.4325C30.2658 16.4325 30.653 16.4944 31.0402 16.5564C31.75 16.6802 32.3953 16.9279 32.9761 17.2376C34.8476 18.2903 36.1382 20.2719 36.1382 22.5012C36.1382 25.4118 34.0087 27.8269 31.2338 28.4461C30.782 28.57 30.3303 28.6319 29.814 28.6319H7.74391C7.16311 28.6319 6.64685 28.57 6.13059 28.3842C4.06555 27.703 2.5813 25.8452 2.5813 23.6778C2.5813 22.1916 3.29116 20.8293 4.32368 19.9623C4.83994 19.5288 5.3562 19.2192 6.00153 19.0334C6.51779 18.8476 7.09858 18.7238 7.67937 18.7238C9.35722 18.7238 10.8415 19.4669 11.7449 20.6435H11.8095C10.7124 18.7238 8.64736 17.3614 6.25966 17.1137C7.16311 14.1413 10.0025 11.9119 13.4228 11.9119C13.81 11.9119 14.1326 11.9739 14.4553 11.9739C15.1651 12.0977 15.8105 12.2216 16.3913 12.5312C18.6499 13.522 20.3278 15.5656 20.7149 18.0426V17.9807C20.7149 15.194 19.2307 12.717 16.9721 11.2927C18.3918 9.06335 20.844 7.57713 23.6834 7.57713ZM23.6834 5.1001C20.1987 5.1001 16.9721 6.83402 15.1006 9.62068C15.0361 9.62068 14.9716 9.62068 14.907 9.55876C14.3908 9.49683 13.939 9.4349 13.4873 9.4349C9.03456 9.4349 5.09807 12.2835 3.87195 16.4325L3.54929 17.4233C3.22663 17.6091 2.90396 17.8568 2.64583 18.1045C0.967988 19.4669 0 21.5104 0 23.6778C0 26.898 2.12957 29.7466 5.29167 30.7374C6.06606 30.9851 6.90498 31.1089 7.74391 31.1089H29.814C30.4594 31.1089 31.1692 31.047 31.8145 30.8612C35.8801 29.9323 38.7195 26.5264 38.7195 22.5012C38.7195 19.4669 36.9772 16.6183 34.2668 15.0702L33.8796 14.8844V14.8225C33.8151 9.49683 29.2978 5.1001 23.6834 5.1001Z" fill="black"/>
</g>
<g id="&#240;&#159;&#166;&#134; icon &#34;book saved&#34;">
<g id="Group">
<path id="Vector_2" opacity="0.4" d="M38.6963 3.36723V23.8316C38.9225 23.8316 39.1619 23.7933 39.3482 23.6912L39.4014 23.6657C41.9557 22.3252 46.4124 20.9209 49.2993 20.5507L49.6852 20.4996C50.9623 20.3464 52 19.1975 52 17.9719V2.55017C52 1.03098 50.7095 -0.117972 49.1264 0.00969126C46.3326 0.226719 42.102 1.57999 39.734 2.99705L39.4014 3.18849C39.2018 3.30339 38.9491 3.36723 38.6963 3.36723Z" fill="#9E9E9E"/>
<path id="Vector_3" d="M25.3923 2.56297V17.9719C25.3923 19.1974 26.43 20.3464 27.7072 20.4996L28.1462 20.5507C31.0464 20.9209 35.5165 22.338 38.0708 23.6912C38.2437 23.7933 38.4566 23.8317 38.696 23.8317V3.36724C38.4433 3.36724 38.1905 3.3034 37.9909 3.1885L37.7648 3.04809C35.3967 1.61826 31.1528 0.252275 28.359 0.0224817H28.2792C26.6961 -0.105181 25.3923 1.03101 25.3923 2.56297Z" fill="#333333"/>
<path id="Vector_4" d="M48.0087 0.150391V5.62711C48.0087 6.13777 47.4234 6.44413 46.971 6.16327L45.348 5.12921L43.7249 6.16327C43.2859 6.44413 42.6873 6.13777 42.6873 5.62711V1.6057C44.43 0.941851 46.3724 0.405717 48.0087 0.150391Z" fill="#D9D9D9"/>
</g>
</g>
</g>
</svg>
